<?xml version="1.0" encoding="UTF-8"?>
<svg id="Réteg_1" xmlns="http://www.w3.org/2000/svg" version="1.1" viewBox="0 0 561 265">
  <!-- Generator: Adobe Illustrator 29.6.1, SVG Export Plug-In . SVG Version: 2.1.1 Build 9)  -->
  <defs>
    <style>
      .st0 {
        stroke-width: 2px;
      }

      .st0, .st1 {
        fill: #623e2a;
        stroke: #623e2a;
        stroke-miterlimit: 10;
      }

      .st1 {
        stroke-width: 3px;
      }
    </style>
  </defs>
  <g>
    <path class="st0" d="M212.63,213.55c0,4.81-3.47,7.69-9.23,7.69h-6.54v7.49h-1.67v-22.9h8.21c5.76,0,9.23,2.88,9.23,7.72h0ZM210.93,213.55c0-3.96-2.62-6.22-7.52-6.22h-6.54v12.4h6.54c4.91,0,7.52-2.26,7.52-6.18h0Z"/>
    <path class="st0" d="M224.8,205.83h1.67v22.9h-1.67v-22.9Z"/>
    <path class="st0" d="M240.99,205.83h1.67v21.39h13.18v1.5h-14.85v-22.9h0Z"/>
    <path class="st0" d="M280.86,222.29h-13.28l-2.91,6.44h-1.8l10.53-22.9h1.67l10.53,22.9h-1.8l-2.94-6.44h0ZM280.24,220.88l-6.02-13.22-5.99,13.22h12.01Z"/>
    <path class="st0" d="M299.54,207.34h-8.24v-1.5h18.16v1.5h-8.24v21.39h-1.67v-21.39h-.01Z"/>
    <path class="st0" d="M335.92,227.22v1.5h-15.8v-22.9h15.31v1.5h-13.64v9.03h12.2v1.47h-12.2v9.39h14.13Z"/>
    <path class="st0" d="M346.22,225.79l.75-1.24c1.57,1.64,4.48,2.88,7.56,2.88,4.58,0,6.61-2,6.61-4.48,0-6.87-14.3-2.75-14.3-11.19,0-3.24,2.49-6.08,8.11-6.08,2.52,0,5.14.79,6.9,2.06l-.62,1.34c-1.9-1.31-4.22-1.93-6.28-1.93-4.45,0-6.44,2.06-6.44,4.58,0,6.87,14.3,2.81,14.3,11.12,0,3.24-2.58,6.05-8.24,6.05-3.4,0-6.67-1.28-8.34-3.11h0Z"/>
  </g>
  <g>
    <path class="st1" d="M113.77,261c-.86,0-1.74-.33-2.61-.97-3.59-2.66-3.22-5.65-2.86-8.53l.08-.68c1.64-14.14,5.49-27.59,9.2-40.59l.34-1.2c9.93-34.81,47.54-121.03,60.28-153.65l4.94-12.64,1.29-3.22c.99-2.42,1.98-4.84,2.76-7.37.89-2.86,1.5-5.51,1.88-8.1.1-.68.4-2.72-1.14-3.41-.33-.14-.69-.22-1.08-.22-1.66,0-3.54,1.41-4.91,2.44-.36.27-.68.51-.92.66-3.69,2.37-7.08,5.17-10.37,7.88l-1.28,1.05c-5.17,4.48-9.91,9.52-14.49,14.39l-.41.43c-9.52,10.28-45.78,49.46-54.91,59.77-6.47,7.3-12.93,14.61-19.48,21.85-2.35,2.6-5.19,4.87-7.94,7.06-1.01.8-2,1.6-2.98,2.42-1.24,1.03-2.49,1.55-3.74,1.55-.83,0-1.66-.24-2.48-.72-2.26-1.34-3.17-3.64-2.81-7.03.65-5.82,1.67-11.61,2.67-17.22l.51-2.85c.5-2.84,1.06-5.66,1.62-8.48,1.49-7.52,3.03-15.28,3.4-23.4.1-2.26-.05-4.34-.48-6.38-.27-1.31-.51-2.47-1.03-3.5-.45-.88-1.18-1.37-2.07-1.37-2.72,0-6.91,4.86-8.59,6.94-13.35,16.62-22.89,36.28-32.11,55.3-1.56,3.22-7.54,15.44-7.54,15.44-2.49,5.09-4.99,10.17-7.56,15.2-.2.41-.39.84-.59,1.28-.51,1.17-1.03,2.37-1.98,3.09-.27.21-.56.32-.86.32-.6,0-1.16-.44-1.53-1.22-.63-1.3-.06-2.66.46-3.86.14-.32.27-.63.38-.93,9.05-25.63,20.85-55.29,39.69-80.95,4.41-6,8.35-10.03,12.81-13.08,2.17-1.49,4.05-2.18,5.91-2.18,1.32,0,2.59.35,3.9,1.06,3.95,2.17,4.25,5.9,4.22,9.86-.05,7.35-1.06,14.43-2.03,20.38-1.04,6.31-2.3,12.52-3.56,18.74-.67,3.33-1.35,6.65-1.98,9.99l-.15.75c-.3,1.55-.61,3.1-.66,4.74-.16,2.53-.19,4.77,1.02,5.85l.21.2.8.2c1.04,0,2.36-1.03,3.63-2.09l.51-.41c2.67-2.01,5.31-4.44,8.07-7.41,3.17-3.4,6.1-7.11,8.94-10.68,1.63-2.07,3.27-4.13,4.96-6.15,17.34-20.76,60.07-67.81,79.18-84.2,4.19-3.59,8.4-6.99,13.77-9.12,1.21-.47,2.21-.7,3.16-.7,1.43,0,2.75.52,4.15,1.64,2.29,1.84,3.19,3.98,3.01,7.16-.35,5.89-2.02,11.05-3.6,15.33-4.59,12.39-9.58,24.8-14.42,36.81-8.64,21.49-42.01,96.21-48.98,119.1l-2.01,6.54c-4.69,15.22-9.54,30.96-11.94,47.56-.08.54-.22,1.07-.36,1.62-.57,2.18-1.27,4.9,2.4,7.85.51.4.51.69.52.79.02.43-.4.87-1,1.1-.4.13-.82.21-1.23.21v-.04h0Z"/>
    <path class="st1" d="M222.94,128.83c.3,1.73-4.31,3.15-5.82,3.63-2.66.85-5.17,1.22-7.78,1.22-2.28,0-4.61-.29-6.93-.85-1.21-.3-2.22-.43-3.09-.43-2.48,0-3.98,1.08-5.18,3.74-2.83,6.29-7.42,11.5-13.65,15.48-1.57,1-3.66,2.14-5.99,2.14-1.48,0-2.88-.45-4.28-1.38-3.92-2.6-4.01-6.58-3.76-10.44.64-10.08,4.64-18.96,11.87-26.38,1.75-1.79,3.53-3.56,5.36-5.27,1.45-1.36,3.08-2.04,4.84-2.04,1.13,0,2.34.29,3.59.85,2.88,1.31,4.62,3.61,5.64,7.46.86,3.24.91,6.26.14,9.24-.42,1.66-.28,2.83.43,3.67.75.88,2.04,1.32,4.2,1.42,1.25.06,2.5.09,3.73.09,2.9,0,5.46-.18,7.82-.54,1.09-.17,2.09-.61,3.06-1.04,1.2-.53,2.44-1.07,3.79-1.07.25,0,.51.02.76.06.99.15,1.24.38,1.25.45h0ZM191.08,129.01c-.71-.94-1.24-1.48-1.78-2.02-1.35-1.36-2.74-2.76-4.31-3.98-.28-.21-.6-.6-.94-1-.76-.91-1.63-1.93-2.68-1.93-.58,0-1.08.32-1.55.98-5.83,8.11-9.74,15.46-9.87,24.97-.02,1.58.4,2.84,1.23,3.64.59.57,1.34.87,2.18.87.7,0,1.46-.21,2.26-.61,8.5-4.29,12.59-12.22,15.2-18.65.15-.38.17-.79.19-1.32,0-.27.02-.59.07-.95h0ZM190.63,116.13c-.46-.43-1.01-.66-1.6-.66-1.48,0-2.9,1.42-3.27,2.45-1.08,2.99,1.24,4.84,3.49,6.62.62.5,1.27,1.01,1.86,1.56l.64.59.1-.7c.1-.68.25-1.33.39-1.99.58-2.57,1.18-5.22-1.62-7.88h.01Z"/>
    <path class="st1" d="M273.1,128.83c.3,1.73-4.31,3.15-5.82,3.63-2.66.85-5.17,1.22-7.78,1.22-2.28,0-4.61-.29-6.93-.85-1.21-.3-2.22-.43-3.09-.43-2.48,0-3.98,1.08-5.18,3.74-2.83,6.29-7.42,11.5-13.65,15.48-1.57,1-3.66,2.14-5.99,2.14-1.48,0-2.88-.45-4.28-1.38-3.92-2.6-4.01-6.58-3.76-10.44.64-10.08,4.64-18.96,11.87-26.38,1.75-1.79,3.53-3.56,5.36-5.27,1.45-1.36,3.08-2.04,4.84-2.04,1.13,0,2.34.29,3.59.85,2.88,1.31,4.62,3.61,5.64,7.46.86,3.24.91,6.26.14,9.24-.42,1.66-.28,2.83.43,3.67.75.88,2.04,1.32,4.2,1.42,1.24.06,2.49.09,3.73.09,2.9,0,5.46-.18,7.82-.54,1.09-.17,2.09-.61,3.06-1.04,1.2-.53,2.44-1.07,3.79-1.07.25,0,.51.02.76.06.99.15,1.24.38,1.25.45h0ZM241.24,129.01c-.71-.94-1.24-1.48-1.78-2.02-1.35-1.36-2.74-2.76-4.31-3.98-.28-.21-.6-.6-.94-1-.76-.91-1.63-1.93-2.68-1.93-.58,0-1.08.32-1.55.98-5.83,8.11-9.74,15.46-9.87,24.97-.02,1.58.4,2.84,1.23,3.64.59.57,1.34.87,2.18.87.7,0,1.46-.21,2.26-.61,8.5-4.29,12.59-12.22,15.2-18.65.15-.38.17-.79.19-1.32,0-.27.02-.59.07-.95h0ZM240.79,116.13c-.46-.43-1.01-.66-1.6-.66-1.48,0-2.9,1.42-3.27,2.45-1.08,2.99,1.24,4.84,3.49,6.62.62.5,1.27,1.01,1.86,1.56l.64.59.1-.7c.1-.68.25-1.33.39-1.99.58-2.57,1.18-5.22-1.62-7.88h.01Z"/>
    <path class="st1" d="M351.42,128.76c.19.71-.49,1.44-1.09,2.09-.29.31-.56.6-.74.88-8.18,12.67-19.55,23.01-34.76,31.62-1.58.9-3.48,1.33-5.99,1.37h-.25c-2.48,0-4.4-.64-5.71-1.91-1.35-1.31-2.03-3.25-2.03-5.79.02-4.58,2.14-8.09,4.17-11.48l1.41-2.37c.69-1.15,1.37-2.3,1.89-3.54l.2-.43c.42-.84.99-2-.34-3.35-.75-.76-1.68-1.14-2.78-1.14-.43,0-.88.06-1.38.18-3.83.93-7.79,1.9-11.58,3.21-5.02,1.73-9.56,4.27-13.94,6.73-1.93,1.08-3.86,2.15-5.83,3.18l-.54.29c-.9.5-1.83,1-2.87,1-.91,0-1.83-.41-2.79-1.25-2.07-1.81-1.68-3.47-1.27-5.24l.13-.57c1.73-8.1,4.74-15.39,8.94-21.68l.29-.45c.46-.74.97-1.57,1.83-1.57.29,0,.6.09.97.27.63.31,1.06.72,1.32,1.25.93,1.92-.51,4.98-1.36,6.81-.22.46-.41.86-.52,1.17l-5.2,13.46c-.13.34-.53,1.4.25,2.1.33.3.79.44,1.38.44,1.31,0,3.15-.71,3.78-1.05.88-.46,1.67-1.01,2.47-1.57.92-.64,1.83-1.28,2.86-1.75,3.22-1.47,6.45-2.92,9.75-4.27,4.08-1.67,7.82-2.73,11.41-3.24.54-.08,1.07-.11,1.58-.11,2.54,0,4.71.9,6.14,2.53,1.55,1.78,2.03,4.21,1.34,6.85-.88,3.35-2.23,6.56-3.53,9.67-.73,1.74-1.46,3.48-2.12,5.27l-.25.6c-.45,1.04-1.07,2.46.22,3.79.74.76,1.63,1.15,2.66,1.15.84,0,1.65-.25,2.36-.47,9.3-2.82,15.93-8.86,21.42-14.3,4.59-4.55,10.3-10.2,13.97-17.16l.21-.41c.49-.96,1.14-2.27,2.04-2.27.24,0,.49.1.78.3.61.41.96.82,1.06,1.18l.04-.02h0Z"/>
    <path class="st1" d="M355.65,190.93c-3.01-3.63-.54-6.28,1.85-8.83.75-.81,1.47-1.59,2.01-2.37,13.44-19.59,52.73-90.44,64.71-110.59,8.76-14.74,17.81-29.99,27.21-44.61,4.12-6.42,8.49-12.7,12.27-18.09.71-1.01,1.52-2.16,2.61-2.16.41,0,.85.17,1.35.51,1.74,1.2,2.09,2.82,1.14,5.4-2.85,7.79-7.22,14.74-11.46,21.45l-1.22,1.94c-5.58,8.86-11.03,17.81-16.48,26.76-6.98,11.45-41.11,73.3-48.46,84.75l-3.53,5.54c-3.26,5.16-6.64,10.48-10.21,15.53-2.65,3.75-5.16,6.97-7.65,9.87-.2.22-.57.57-1.03,1.02-2.57,2.42-5.28,5.19-4.95,7.45.09.61.38,1.14.86,1.6.51.47,1.21.71,2.12.71.2,0,.41,0,.64-.03,1.29-.13,2.53-.38,3.77-.62,1.04-.21,2.08-.41,3.15-.55,3.24-.43,6.5-.81,9.78-1.12,6.43-.6,12.34-.89,18.05-.89h1.73c7.49.09,14.7.68,21.43,1.75,6.4,1.02,13.02,2.09,19.54,4.72l.74.27c.39.14,1.04.38,1.16.52-.48.75-1.17.97-2.22.97-1.48,0-3.37-.43-4.76-.73l-1.3-.29c-1.6-.3-3.19-.61-4.78-.93-4.19-.83-8.52-1.7-12.77-2.1-5.15-.49-10.4-.73-15.62-.73l-2.49.02c-10.98.16-22.14,1.36-34.11,3.67-1.15.22-2.35.7-3.57,1.19-1.67.67-3.41,1.35-5.07,1.35s-3.12-.73-4.44-2.32v-.03h0Z"/>
    <path class="st1" d="M496.94,123.9c.21.41-.08,1.22-.66,1.82-10.11,10.6-22.62,20.06-37.2,28.1l-.9.52c-1.17.7-2.37,1.42-3.72,1.42-1.04,0-2.07-.44-3.14-1.36-2.67-2.27-1.94-4.34-1.16-6.53.15-.45.31-.88.43-1.31,1.77-6.31,4.62-12.08,7.43-17.37,0,0,3.66-6.76,4.46-8.27.1-.19.32-.52.61-.96,1.74-2.62,3.54-5.55,2.83-7.28-.18-.43-.5-.78-.93-1-.22-.11-.47-.18-.73-.18-1.91,0-4.91,3.25-4.94,3.28-1.4,1.54-3.09,4-3.23,7.01v.51c-.01.82-.04,2.19-.62,2.19-.23,0-.81-.19-2.1-1.46l-.39-.39-.95.98c-.51.53-1.04,1.06-1.54,1.61-2.2,2.4-4.31,4.88-6.42,7.37-4.66,5.48-9.47,11.15-15.21,15.78l-1.13.95c-1.75,1.5-3.74,3.21-5.99,3.21-1.04,0-2.06-.36-3.12-1.09-4.2-2.92-3.11-7.15-2.14-10.88l.24-.95c2.34-9.36,6.59-17.57,12.66-24.37,4.36-4.87,9.14-7.13,15.05-7.13h.56c2.54.07,5.13.11,6.28,1.71,1.85,2.56,3.46,3.76,5.06,3.76s2.7-1.13,3.95-2.32l.42-.4c.92-.86,1.98-1.58,3.06-2.07.92-.41,1.78-.81,2.7-.81.71,0,1.36.25,2,.77,1.64,1.33,1.2,2.67.44,4.29-3.33,7.21-6.72,14.22-10.11,21.23l-2.66,5.5c-1.07,2.21-1.92,4.58-2.74,6.89l-.79,2.17c-.35.97-.38,1.67-.06,2.22.19.32.48.57.86.71.27.1.58.15.95.15,2.01,0,5.22-1.59,6.1-2.19,6.33-4.33,12.5-8.86,18.26-13.13,1.89-1.4,3.7-2.87,5.52-4.34,1.28-1.04,2.57-2.08,3.87-3.09.64-.5,1.27-1.01,1.89-1.53,1.14-.94,2.27-1.88,3.53-2.7l.49-.35c.57-.42,1.44-1.07,2.04-1.07.39.06.75.16.87.39h.02,0ZM452.67,114.06c-1.14-1.53-2.94-2.53-4.56-2.53-.23,0-.45.02-.67.06-2.42.44-4.65,1.25-6.46,2.32-8.64,5.12-13.58,13.58-17.53,21.1-.41.79-.87,1.55-1.33,2.32-1.11,1.84-2.25,3.76-2.77,6-.24,1.04-.49,4.29.88,5.56.35.32.77.49,1.22.49.42,0,.88-.15,1.39-.46,8.65-5.22,14.91-12.98,20.96-20.49,2.85-3.54,5.8-7.19,8.95-10.52.98-1.03.95-2.48-.07-3.86h0Z"/>
    <path class="st1" d="M492.2,155.73c-.1,1.14-.06,3.2,1.22,4.22.45.35,1,.53,1.61.53.34,0,.71-.05,1.1-.17,3.81-1.08,6.75-3.84,9.35-6.28,3.24-3.04,5.64-6.87,7.13-11.37.44-1.27.87-2.49-.41-3.91-.76-.85-1.55-1.27-2.41-1.27-.62,0-1.19.23-1.73.44-.92.34-1.59.39-2.23.44-.66.05-.92.07-1.19.07-1.65,0-2.61-.53-3.1-1.73-.29-.71-.32-1.25-.11-1.66.3-.58,1.12-.92,2.56-1.05,10.48-1.02,20.36-3.07,27.82-4.74,2.83-.63,5.64-1.27,8.43-1.98l.47-.13c.48-.13.97-.28,1.41-.28s.92.11,1.36.93c.22.41.29.73.21.96-.17.48-1.02.65-1.76.81l-7.7,1.74c-4.88,1.12-9.75,2.24-14.66,3.28-3.42.71-5.05,1.86-5.05,6.47-.01,9.06-6.34,14.36-12.45,19.49l-1.02.89c-1.87,1.65-3.99,3.52-6.6,3.52-1.41,0-2.84-.53-4.37-1.63-4.5-3.22-3.63-7.48-2.86-11.24l.29-1.48c4.22-23.68,12.8-45.21,25.5-63.98l3.32-4.96c5.53-8.29,11.25-16.86,18.19-24.22,2.03-2.15,4.47-4.52,7.87-5.48,1.02-.29,2.03-.43,3-.43,2.34,0,4.41.81,6,2.34,1.84,1.78,2.87,4.45,2.9,7.48.1,11.68-5.25,20.45-10.48,27.5-10.6,14.26-24.14,26.3-40.23,35.77-.3.17-.61.32-.92.47-1.05.51-2.14,1.03-2.59,2.32-.7,2.07-1.47,4.09-2.24,6.12-1.2,3.15-2.43,6.41-3.4,9.76-1.12,3.84-1.87,8.02-2.22,12.43h-.01ZM502.53,120.02l.74.69c13.27-7.04,24.45-16.21,34.19-28.05,7.05-8.57,11.16-16.61,12.92-25.31l.14-.68c.68-3.22,1.6-7.63-2.22-10.09-.81-.51-1.63-.78-2.43-.78-2.33,0-4.11,2.23-5.53,4.02l-.51.62c-10.69,13.09-20.78,28.11-30.83,45.92-1.68,2.98-3.12,6.21-4.51,9.31-.65,1.46-1.3,2.92-1.97,4.36h.01Z"/>
  </g>
</svg>